<?xml version="1.0" standalone="no"?><!DOCTYPE svg PUBLIC "-//W3C//DTD SVG 1.1//EN" "http://www.w3.org/Graphics/SVG/1.1/DTD/svg11.dtd"><svg t="1622968650957" class="icon" viewBox="0 0 1024 1024" version="1.1" xmlns="http://www.w3.org/2000/svg" p-id="53642" xmlns:xlink="http://www.w3.org/1999/xlink" width="200" height="200"><defs><style type="text/css"></style></defs><path d="M912.483672 262.202771c-14.20656-18.499329-40.045041-21.141506-65.019853-21.141506l-602.811262 0-8.266267-60.626799c-4.696975-36.096103-22.372543-40.577161-61.945841-40.577161l-63.97301 0c-18.811438-0.180102-23.699772 18.931165-23.699772 29.404704 0 10.467399 7.603165 26.52205 25.870204 26.421766l33.620725 0c24.7548 0.290619 33.976836 14.546298 37.622876 32.277124l70.168106 466.452641c4.808516 36.910655 36.427654 59.951417 75.196633 59.951417l480.509798 0c15.525602-0.039909 28.157293-6.955412 27.952632-25.694195-0.192382-17.844413-11.883655-27.876907-27.952632-27.916816l-467.938482 0c-19.794835 0-32.674167-11.94403-35.024701-30.019711l-6.215562-39.917128 463.609896 0c35.283598 0 64.772212-19.327184 73.358775-51.588959l81.59639-263.160585C924.986427 294.15653 922.544819 276.032754 912.483672 262.202771L912.483672 262.202771zM854.426395 343.391884l-65.164139 211.376175c-4.181229 15.705704-18.591427 22.428825-36.742832 22.428825l-461.043445 0-38.533618-281.677311 564.724829 0c13.114692 0 32.517601 1.051959 39.489386 10.133801C863.300506 313.647443 857.240487 332.826248 854.426395 343.391884L854.426395 343.391884zM419.17743 835.174424c0 30.095435-24.39562 54.491055-54.486962 54.491055-30.095435 0-54.491055-24.39562-54.491055-54.491055 0-30.091342 24.39562-54.486962 54.491055-54.486962C394.78181 780.686439 419.17743 805.082058 419.17743 835.174424L419.17743 835.174424zM765.006829 835.174424c0 30.095435-24.399713 54.491055-54.491055 54.491055s-54.486962-24.39562-54.486962-54.491055c0-30.091342 24.39562-54.486962 54.486962-54.486962S765.006829 805.082058 765.006829 835.174424L765.006829 835.174424zM765.006829 835.174424" p-id="53643" fill="#ababab"></path></svg>